PathFileType	4	(X/Y/Z)	C:/Users/opensim2020/Desktop/walking_exp_matlab/subject02_walking14_straight_04.trc																																																																																																																									
DataRate	CameraRate	NumFrames	NumMarkers	Units	OrigDataRate	OrigDataStartFrame	OrigNumFrames																																																																																																																					
100	100	4	41	mm	100	1780	137																																																																																																																					
Frame#	Time	LFHD			RFHD			LBHD			RBHD			C7			T10			CLAV			STRN			RBAK			LSHO			LUPA			LELB			LFRM			LWRA			LWRB			LFIN			RSHO			RUPA			RELB			RFRM			RWRA			RWRB			RFIN			LASI			RASI			LPSI			RPSI			LTHI			LKNE			LTIB			LANK			LHEE			LTOE			RTHI			RKNE			RTIB			RANK			RHEE			RTOE			*39			*40		
		X1	Y1	Z1	X2	Y2	Z2	X3	Y3	Z3	X4	Y4	Z4	X5	Y5	Z5	X6	Y6	Z6	X7	Y7	Z7	X8	Y8	Z8	X9	Y9	Z9	X10	Y10	Z10	X11	Y11	Z11	X12	Y12	Z12	X13	Y13	Z13	X14	Y14	Z14	X15	Y15	Z15	X16	Y16	Z16	X17	Y17	Z17	X18	Y18	Z18	X19	Y19	Z19	X20	Y20	Z20	X21	Y21	Z21	X22	Y22	Z22	X23	Y23	Z23	X24	Y24	Z24	X25	Y25	Z25	X26	Y26	Z26	X27	Y27	Z27	X28	Y28	Z28	X29	Y29	Z29	X30	Y30	Z30	X31	Y31	Z31	X32	Y32	Z32	X33	Y33	Z33	X34	Y34	Z34	X35	Y35	Z35	X36	Y36	Z36	X37	Y37	Z37	X38	Y38	Z38	X39	Y39	Z39	X40	Y40	Z40	X41	Y41	Z41
																																																																																																																												
103	1.02	478.34595	1705.72546	997.15643	492.76447	1697.26135	1139.83276	343.75546	1638.75317	1009.13239	346.02203	1629.47375	1152.14307	296.40909	1494.43311	1093.05811	259.84186	1217.93359	1116.39392	438.05219	1431.82959	1071.70276	500.74542	1264.92566	1093.82324	254.69803	1322.61548	1174.82129	347.88058	1456.1604	909.10852	293.5238	1261.69202	838.22107	259.22052	1130.35242	826.2439	219.5047	1010.60718	799.79602	231.32045	871.2749	794.19592	181.7845	895.30267	783.70703	173.03236	834.43982	762.58118	388.96024	1483.34192	1268.09558	412.43436	1310.92419	1382.72827	475.09845	1180.42834	1425.17896	565.21155	1098.07227	1439.40833	672.8078	1020.922	1413.41357	641.5163	993.4917	1451.68713	708.59259	967.50012	1450.61096	493.74399	958.65112	990.88885	480.24103	950.40375	1250.19751	279.37482	1001.73627	1062.80188	270.33414	1006.53583	1174.07544	499.53381	658.65582	920.698	561.01764	470.08096	962.35565	584.60352	278.23367	972.85004	689.23956	76.62739	993.93384	682.2077	42.79829	1053.97522	835.8891	97.45812	946.61102	324.52863	662.28857	1311.63843	263.07391	458.99084	1274.25891	163.0619	298.44641	1282.90527	89.31493	115.97305	1252.78235	43.62587	68.49655	1198.68188	227.6613	35.80349	1272.80249	390.45029	1783.19958	1091.82593	NaN	NaN	NaN
104	1.03	491.58151	1703.70667	994.44556	506.97852	1695.4259	1137.21545	357.51816	1637.31042	1007.6181	360.01752	1627.84912	1150.13477	309.78708	1492.85181	1090.91919	274.26682	1215.97559	1113.74304	451.73102	1430.43616	1069.36365	514.97351	1263.86572	1091.47083	268.64114	1320.69238	1172.45251	360.94968	1454.69495	906.98889	304.53989	1260.74585	836.3045	268.68817	1130.24097	825.33667	226.89166	1011.65778	798.66687	235.01295	871.7691	792.57739	185.72557	897.22754	782.80438	174.91057	836.49048	761.61206	402.30396	1481.53394	1266.0835	425.53662	1308.83398	1380.29517	489.20865	1178.92297	1423.13257	581.27679	1098.72253	1437.13977	690.78656	1024.82568	1410.73242	660.0979	996.00226	1448.38245	727.82275	972.33728	1447.79724	509.64517	957.72064	989.42615	494.91904	949.18762	1248.72876	295.11801	1000.26501	1059.3396	285.21692	1005.06793	1170.81738	517.6084	657.59766	919.0882	576.25769	468.53607	961.01874	598.26563	276.31284	971.8335	699.93646	73.72399	994.30524	692.27826	40.10612	1054.59082	846.84796	92.91337	947.0827	336.81735	662.23071	1310.16345	274.85544	458.8905	1274.51416	170.73079	300.8064	1282.52466	92.22495	120.4594	1252.97351	46.06611	74.15897	1198.22009	228.08452	35.77563	1273.18811	404.39233	1781.32556	1089.27686	NaN	NaN	NaN
105	1.04	505.08801	1702.05457	991.75098	521.06262	1693.6803	1134.49146	370.7222	1636.23486	1005.35229	373.97595	1626.78394	1148.08801	323.6152	1491.35193	1088.88831	288.92276	1214.04956	1110.97131	465.37839	1429.21387	1066.7832	529.3988	1262.94324	1088.9126	282.9032	1318.68323	1169.67603	374.07901	1453.27271	904.75781	316.47418	1259.7832	834.51837	278.68784	1129.82019	824.09113	233.48286	1012.48499	798.31488	239.64508	872.54456	791.07758	190.50238	898.99365	781.97455	178.19595	838.75793	760.91528	415.5488	1479.90051	1263.84045	438.29947	1307.15149	1378.0011	502.85864	1177.72559	1421.23755	596.70422	1099.37646	1434.62024	707.93207	1028.66016	1407.83398	677.83087	998.44751	1444.9812	746.21326	976.66028	1444.40576	525.84985	957.0882	987.6825	510.21838	948.10431	1247.02222	311.04395	998.97748	1055.90833	300.52924	1003.74982	1167.29053	536.0025	657.01605	917.67432	591.77911	467.23306	959.60376	610.49261	274.47479	971.35077	707.88824	70.06046	995.10956	699.56647	36.39965	1056.24304	855.08221	86.94625	948.53711	350.12726	662.05688	1308.82678	287.30096	459.01608	1275.10266	178.90263	303.62213	1282.57483	95.47695	125.49464	1253.55481	48.36969	80.95675	1198.71204	228.2578	35.53427	1273.68433	418.96259	1780.19165	1087.40015	NaN	NaN	NaN
106	1.05	518.45569	1700.48816	988.98358	535.02734	1691.9884	1131.65356	384.18295	1634.98352	1003.07977	387.8338	1625.57117	1145.88757	337.08817	1489.73169	1086.32043	303.83057	1212.08154	1108.21106	479.3309	1428.21973	1063.93408	544.02667	1262.21301	1086.08716	297.22098	1316.82458	1167.00171	387.18195	1452.16406	902.35132	328.69379	1259.328	832.58405	288.68259	1130.01721	822.95178	241.62535	1013.42981	797.43884	245.48125	873.31561	789.75732	196.65401	900.65295	781.39722	182.7682	840.82324	760.39423	428.67361	1478.43518	1261.29126	450.95126	1305.39795	1375.0321	515.98523	1176.60925	1419.08557	611.45032	1100.01379	1431.93091	724.26532	1032.30237	1404.79175	694.73285	1000.70831	1441.15063	763.52277	981.17706	1441.08203	542.27014	956.7467	985.74054	526.12109	947.26135	1245.09436	327.33267	997.67865	1052.37109	316.37384	1002.67969	1163.68677	554.37738	656.34277	916.08728	607.70795	466.02756	958.12793	621.71912	272.59357	970.20367	713.42773	65.88306	995.74524	703.40002	32.39072	1056.58447	861.68671	79.95391	951.2041	364.43298	661.78467	1307.54187	300.38449	459.27121	1275.91284	187.50061	306.81607	1282.95227	99.19404	131.11403	1254.58667	51.55875	88.40232	1199.354	228.73239	35.644	1274.38025	432.9805	1778.75745	1084.85254	NaN	NaN	NaN
